<svg width="37" height="37" viewBox="0 0 37 37" fill="none" xmlns="http://www.w3.org/2000/svg">
<path d="M28.1905 9.69038H29.9524M7.92857 0.880859H29.0714C32.9637 0.880859 36.1191 4.03619 36.1191 7.92848V29.0713C36.1191 32.9636 32.9637 36.119 29.0714 36.119H7.92857C4.03628 36.119 0.880951 32.9636 0.880951 29.0713V7.92848C0.880951 4.03619 4.03628 0.880859 7.92857 0.880859ZM18.5 25.5475C14.6077 25.5475 11.4524 22.3922 11.4524 18.4999C11.4524 14.6076 14.6077 11.4523 18.5 11.4523C22.3923 11.4523 25.5476 14.6076 25.5476 18.4999C25.5476 22.3922 22.3923 25.5475 18.5 25.5475Z" stroke="#F1FAEE"/>
</svg>
