<svg width="37" height="37" viewBox="0 0 37 37" fill="none" xmlns="http://www.w3.org/2000/svg">
<path d="M36.0647 3.52393L36.5636 3.49085C36.5503 3.29028 36.4182 3.11717 36.2282 3.05143C36.0382 2.98568 35.8274 3.04008 35.6929 3.18952L36.0647 3.52393ZM34.0515 10.9715C34.0515 10.6954 33.8277 10.4715 33.5515 10.4715C33.2754 10.4715 33.0515 10.6954 33.0515 10.9715H34.0515ZM18.5 13.2144V13.7144H19V13.2144H18.5ZM3.39407 3.52393L3.86233 3.3486C3.79256 3.16227 3.61895 3.03503 3.42025 3.02461C3.22156 3.01419 3.03559 3.12258 2.94672 3.3006L3.39407 3.52393ZM13.2143 26.4287L13.5681 26.782C13.6905 26.6594 13.7407 26.4823 13.7009 26.3137C13.6611 26.1452 13.5369 26.0093 13.3726 25.9544L13.2143 26.4287ZM0.880951 31.211V30.711C0.660683 30.711 0.466362 30.8552 0.402457 31.066C0.338551 31.2767 0.420118 31.5045 0.603304 31.6268L0.880951 31.211ZM31.6288 5.97393L31.258 6.30927L31.4381 6.50852L31.7037 6.4683L31.6288 5.97393ZM35.5658 3.557C35.6981 5.55285 35.5846 6.86301 35.2161 7.90177C34.8513 8.93008 34.2187 9.74316 33.2056 10.7139L33.8975 11.436C34.9611 10.4168 35.719 9.47531 36.1586 8.2361C36.5945 7.00733 36.6992 5.53695 36.5636 3.49085L35.5658 3.557ZM34.0515 12.8054V11.0749H33.0515V12.8054H34.0515ZM34.0515 11.0749V10.9715H33.0515V11.0749H34.0515ZM18 11.4525V13.2144H19V11.4525H18ZM26.1155 3.02393C21.5929 3.02393 18 6.97507 18 11.4525H19C19 7.47505 22.1961 4.02393 26.1155 4.02393V3.02393ZM33.0515 12.8054C33.0515 24.0943 23.5849 33.8573 12.3333 33.8573V34.8573C24.1566 34.8573 34.0515 24.6269 34.0515 12.8054H33.0515ZM2.92582 3.69925C4.23413 7.19348 9.18929 13.7144 18.5 13.7144V12.7144C9.71623 12.7144 5.06714 6.5664 3.86233 3.3486L2.92582 3.69925ZM2.94672 3.3006C0.3865 8.42896 -0.0224085 13.366 1.7171 17.5288C3.45662 21.6916 7.30375 24.9826 13.056 26.903L13.3726 25.9544C7.81576 24.0993 4.23967 20.9719 2.63978 17.1432C1.03989 13.3145 1.3754 8.68693 3.84143 3.74726L2.94672 3.3006ZM12.8605 26.0754C11.2563 27.6821 6.75081 30.711 0.880951 30.711V31.711C7.07408 31.711 11.8215 28.5313 13.5681 26.782L12.8605 26.0754ZM31.9997 5.63859C30.5484 4.03352 28.4494 3.02393 26.1155 3.02393V4.02393C28.1547 4.02393 29.9881 4.90482 31.258 6.30927L31.9997 5.63859ZM31.7037 6.4683C33.4376 6.2057 35.1481 5.29032 36.4364 3.85833L35.6929 3.18952C34.5535 4.45612 33.05 5.25299 31.554 5.47957L31.7037 6.4683ZM0.603304 31.6268C4.48124 34.2161 8.21037 34.8573 12.3333 34.8573V33.8573C8.33437 33.8573 4.82003 33.2399 1.1586 30.7952L0.603304 31.6268Z" fill="#F1FAEE"/>
</svg>
